HIERARCHY
ROOT Pelvis
{
	OFFSET 0.000000 0.000000 0.000000
	CHANNELS 6 Xposition Yposition Zposition Xrotation Yrotation Zrotation
	JOINT LeftUpLeg_virtual
	{
		OFFSET 0.000000 0.000000 0.000000
		CHANNELS 3 Xrotation Yrotation Zrotation
		JOINT LeftUpLeg
		{
			OFFSET 8.479700 -4.795502 -0.379100
			CHANNELS 3 Xrotation Yrotation Zrotation
			JOINT LeftLeg
			{
				OFFSET 0.024144 -32.555107 0.112900
				CHANNELS 3 Xrotation Yrotation Zrotation
				JOINT LeftFoot
				{
					OFFSET -0.024144 -32.638630 -3.012600
					CHANNELS 3 Xrotation Yrotation Zrotation
					JOINT LeftToeBase
					{
						OFFSET 0.970200 -13.225400 11.864200
						CHANNELS 3 Xrotation Yrotation Zrotation
						End Site
						{
							OFFSET 0 0 0
						}
					}
				}
			}
		}
	}
	JOINT RightUpLeg_virtual
	{
		OFFSET 0.000000 0.000000 0.000000
		CHANNELS 3 Xrotation Yrotation Zrotation
		JOINT RightUpLeg
		{
			OFFSET -8.479700 -4.795502 -0.379100
			CHANNELS 3 Xrotation Yrotation Zrotation
			JOINT RightLeg
			{
				OFFSET -0.023144 -32.555092 0.112900
				CHANNELS 3 Xrotation Yrotation Zrotation
				JOINT RightFoot
				{
					OFFSET 0.023144 -32.638641 -3.012700
					CHANNELS 3 Xrotation Yrotation Zrotation
					JOINT RightToeBase
					{
						OFFSET -0.970200 -13.225400 11.864200
						CHANNELS 3 Xrotation Yrotation Zrotation
						End Site
						{
							OFFSET 0 0 0
						}
					}
				}
			}
		}
	}
	JOINT Hips_virtual
	{
		OFFSET 0.000000 0.000000 0.000000
		CHANNELS 3 Xrotation Yrotation Zrotation
		JOINT Hips
		{
			OFFSET -0.000000 -0.000000 -0.000000
			CHANNELS 3 Xrotation Yrotation Zrotation
			JOINT Spine
			{
				OFFSET 0.000000 7.722000 1.166200
				CHANNELS 3 Xrotation Yrotation Zrotation
				JOINT Spine1
				{
					OFFSET 0.000000 12.024101 0.248800
					CHANNELS 3 Xrotation Yrotation Zrotation
					JOINT Spine2
					{
						OFFSET 0.000000 11.502998 -0.491200
						CHANNELS 3 Xrotation Yrotation Zrotation
						JOINT Neck_virtual
						{
							OFFSET 0.000000 0.000000 0.000000
							CHANNELS 3 Xrotation Yrotation Zrotation
							JOINT Neck
							{
								OFFSET 0.000000 18.430702 -3.123100
								CHANNELS 3 Xrotation Yrotation Zrotation
								JOINT Head
								{
									OFFSET 0.000000 9.051102 1.034000
									CHANNELS 3 Xrotation Yrotation Zrotation
									End Site
									{
										OFFSET 0 0 0
									}
								}
							}
						}
						JOINT LeftShoulder_virtual
						{
							OFFSET 0.000000 0.000000 0.000000
							CHANNELS 3 Xrotation Yrotation Zrotation
							JOINT LeftShoulder
							{
								OFFSET 6.197800 13.665199 -4.064700
								CHANNELS 3 Xrotation Yrotation Zrotation
								JOINT LeftArm
								{
									OFFSET 7.778100 -0.187103 -1.709300
									CHANNELS 3 Xrotation Yrotation Zrotation
									JOINT LeftForeArm
									{
										OFFSET 22.049376 0.000000 0.000000
										CHANNELS 3 Xrotation Yrotation Zrotation
										JOINT LeftHand
										{
											OFFSET 23.009392 0.000000 0.000000
											CHANNELS 3 Xrotation Yrotation Zrotation
											End Site
											{
												OFFSET 0 0 0
											}
										}
									}
								}
							}
						}
						JOINT RightShoulder_virtual
						{
							OFFSET 0.000000 0.000000 0.000000
							CHANNELS 3 Xrotation Yrotation Zrotation
							JOINT RightShoulder
							{
								OFFSET -6.197800 13.665199 -4.064700
								CHANNELS 3 Xrotation Yrotation Zrotation
								JOINT RightArm
								{
									OFFSET -7.778100 -0.187103 -1.709300
									CHANNELS 3 Xrotation Yrotation Zrotation
									JOINT RightForeArm
									{
										OFFSET -22.049376 0.000000 0.000000
										CHANNELS 3 Xrotation Yrotation Zrotation
										JOINT RightHand
										{
											OFFSET -23.009392 0.000000 0.000000
											CHANNELS 3 Xrotation Yrotation Zrotation
											End Site
											{
												OFFSET 0 0 0
											}
										}
									}
								}
							}
						}
					}
				}
			}
		}
	}
}
MOTION
Frames: 7
Frame Time: 0.03333333
0.090297 40.445999 -1.256262 0.000000 0.000000 0.000000 0.290380 0.704444 0.728993 -11.399872 -1.363891 14.582483 105.422829 8.446202 1.703727 24.970586 -1.530319 -18.860866 0.000000 0.000000 0.000000 0.290380 0.704444 0.728993 -9.809635 -2.395903 -14.322075 106.250375 0.547064 -0.641664 17.993090 1.445358 13.580729 0.000000 0.000000 0.000000 0.290380 0.704444 0.728993 0.000000 0.000000 0.000000 1.234566 0.279016 0.029680 0.110009 0.122969 -0.090715 0.000000 0.000000 0.000000 0.108808 0.114775 -0.092286 -0.391164 0.001168 0.119094 0.000000 0.000000 0.000000 0.108808 0.114775 -0.092286 0.606873 -3.284650 -22.051937 11.464578 -16.354596 -52.988526 0.000001 -20.361392 0.000021 0.000000 0.000000 0.000000 0.108808 0.114775 -0.092286 -0.115224 9.903019 22.054927 7.750432 7.038404 56.271975 -0.000009 19.886625 0.000026 0.000000 0.000000 0.000000 
0.089886 40.446594 -1.264874 0.000000 0.000000 0.000000 0.298097 0.623634 0.622680 -11.366498 -1.413588 14.719659 105.453148 8.379001 1.601995 24.948089 -1.513791 -18.879070 0.000000 0.000000 0.000000 0.298097 0.623634 0.622680 -9.876448 -2.414719 -14.188951 106.261556 0.421646 -0.724544 18.025556 1.522475 13.550888 0.000000 0.000000 0.000000 0.298097 0.623634 0.622680 0.000000 0.000000 0.000000 1.200604 0.297191 0.036211 0.052092 0.122970 -0.079784 0.000000 0.000000 0.000000 0.095956 0.114775 -0.080994 -0.228473 -0.005408 0.129676 0.000000 0.000000 0.000000 0.095956 0.114775 -0.080994 0.608520 -3.276007 -22.034011 11.676382 -16.033980 -52.975405 -0.000000 -20.991232 -0.000002 0.000000 0.000000 0.000000 0.095956 0.114775 -0.080994 -0.112319 9.880031 22.058285 7.556009 7.063307 56.310648 -0.000003 19.520833 -0.000011 0.000000 0.000000 0.000000 
0.089489 40.447105 -1.272137 0.000000 0.000000 0.000000 0.304153 0.544283 0.516341 -11.332251 -1.451494 14.856128 105.480333 8.295593 1.511079 24.924564 -1.478175 -18.904430 0.000000 0.000000 0.000000 0.304153 0.544283 0.516341 -9.937781 -2.433536 -14.055495 106.269704 0.292579 -0.806384 18.057480 1.603957 13.521419 0.000000 0.000000 0.000000 0.304153 0.544283 0.516341 0.000000 0.000000 0.000000 1.163391 0.312962 0.043190 -0.003815 0.122969 -0.069357 0.000000 0.000000 0.000000 0.082491 0.114775 -0.070304 -0.071076 -0.012586 0.139878 0.000000 0.000000 0.000000 0.082491 0.114775 -0.070304 0.612547 -3.237233 -22.011258 11.987008 -15.467819 -52.997572 0.000004 -21.987789 -0.000001 0.000000 0.000000 0.000000 0.082491 0.114775 -0.070304 -0.109608 9.836587 22.070942 7.347443 6.953235 56.327908 0.000001 19.192799 -0.000006 0.000000 0.000000 0.000000 
0.089097 40.447533 -1.278543 0.000000 0.000000 0.000000 0.309119 0.465827 0.410003 -11.298729 -1.477510 14.993614 105.504962 8.197023 1.430007 24.899458 -1.427202 -18.932629 0.000000 0.000000 0.000000 0.309119 0.465827 0.410003 -9.995752 -2.453077 -13.921497 106.276234 0.177977 -0.886830 18.088986 1.670706 13.497133 0.000000 0.000000 0.000000 0.309119 0.465827 0.410003 0.000000 0.000000 0.000000 1.124150 0.327246 0.050433 -0.058467 0.122970 -0.059245 0.000000 0.000000 0.000000 0.068642 0.114775 -0.059990 0.083013 -0.020141 0.149842 0.000000 0.000000 0.000000 0.068642 0.114775 -0.059990 0.620313 -3.169125 -21.988828 12.328126 -14.761507 -53.058935 -0.000000 -23.142223 0.000001 0.000000 0.000000 0.000000 0.068642 0.114775 -0.059990 -0.108020 9.779244 22.093358 7.155703 6.738898 56.317130 -0.000006 18.933011 0.000006 0.000000 0.000000 0.000000 
0.088759 40.447914 -1.284632 0.000000 0.000000 0.000000 0.313559 0.387818 0.303585 -11.267668 -1.489384 15.128282 105.526853 8.090847 1.365391 24.876025 -1.361677 -18.973311 0.000000 0.000000 0.000000 0.313559 0.387818 0.303585 -10.051679 -2.470904 -13.786798 106.282074 0.084460 -0.963571 18.120082 1.718781 13.477538 0.000000 0.000000 0.000000 0.313559 0.387818 0.303585 0.000000 0.000000 0.000000 1.084093 0.340845 0.057867 -0.112616 0.122970 -0.049261 0.000000 0.000000 0.000000 0.054640 0.117964 -0.049826 0.235782 -0.027848 0.159711 0.000000 0.000000 0.000000 0.054640 0.117964 -0.049826 0.631747 -3.067925 -21.968224 12.694671 -13.897985 -53.165390 0.000001 -24.452528 0.000001 0.000000 0.000000 0.000000 0.054640 0.117964 -0.049826 -0.107063 9.704563 22.126622 6.969231 6.423784 56.272142 -0.000003 18.707391 0.000003 0.000000 0.000000 0.000000 
0.088419 40.448257 -1.290926 0.000000 0.000000 0.000000 0.318041 0.309626 0.197165 -11.239934 -1.490220 15.263847 105.547999 7.967790 1.309102 24.851360 -1.279512 -19.017740 0.000000 0.000000 0.000000 0.318041 0.309626 0.197165 -10.107966 -2.489077 -13.651317 106.288337 0.008850 -1.040079 18.151110 1.748273 13.464854 0.000000 0.000000 0.000000 0.318041 0.309626 0.197165 0.000000 0.000000 0.000000 1.044438 0.354735 0.065259 -0.167017 0.122970 -0.039213 0.000000 0.000000 0.000000 0.040713 0.121188 -0.039587 0.389213 -0.035478 0.169628 0.000000 0.000000 0.000000 0.040713 0.121188 -0.039587 0.646201 -2.935363 -21.952348 13.072308 -12.890879 -53.314513 -0.000004 -25.878511 -0.000013 0.000000 0.000000 0.000000 0.040713 0.121188 -0.039587 -0.106150 9.611254 22.171081 6.773669 6.031069 56.189630 -0.000006 18.472107 0.000038 0.000000 0.000000 0.000000 
0.088035 40.448555 -1.297930 0.000000 0.000000 0.000000 0.323127 0.230757 0.090701 -11.215717 -1.485023 15.400553 105.569514 7.826385 1.255319 24.826057 -1.182165 -19.063324 0.000000 0.000000 0.000000 0.323127 0.230757 0.090701 -10.166358 -2.505426 -13.514726 106.296014 -0.050501 -1.116569 18.182595 1.762547 13.457506 0.000000 0.000000 0.000000 0.323127 0.230757 0.090701 0.000000 0.000000 0.000000 1.006402 0.369761 0.072499 -0.222423 0.122969 -0.028913 0.000000 0.000000 0.000000 0.027093 0.124484 -0.029047 0.545297 -0.042807 0.179735 0.000000 0.000000 0.000000 0.027093 0.124484 -0.029047 0.662810 -2.777624 -21.944153 13.441260 -11.777713 -53.496958 0.000010 -27.358697 0.000003 0.000000 0.000000 0.000000 0.027093 0.124484 -0.029047 -0.104829 9.499842 22.226423 6.558169 5.591044 56.067507 0.000007 18.195878 -0.000023 0.000000 0.000000 0.000000 
